<?xml version="1.0" standalone="no"?>
<!DOCTYPE svg PUBLIC "-//W3C//DTD SVG 20010904//EN"
 "http://www.w3.org/TR/2001/REC-SVG-20010904/DTD/svg10.dtd">
<svg version="1.0" xmlns="http://www.w3.org/2000/svg"
 width="480.000000pt" height="480.000000pt" viewBox="0 0 480.000000 480.000000"
 preserveAspectRatio="xMidYMid meet">
<metadata>
Created by potrace 1.11, written by Peter Selinger 2001-2013
</metadata>
<g transform="translate(0.000000,480.000000) scale(0.100000,-0.100000)"
fill="#000000" stroke="none">
<path d="M600 4350 l0 -150 -150 0 -150 0 0 -750 0 -750 150 0 150 0 0 150 0
150 150 0 150 0 0 150 0 150 150 0 150 0 0 150 0 150 150 0 150 0 0 -450 0
-450 -150 0 -150 0 0 -150 0 -150 -150 0 -150 0 0 -150 0 -150 -300 0 -300 0
0 -750 0 -750 150 0 150 0 0 -150 0 -150 750 0 750 0 0 150 0 150 -150 0 -150
0 0 150 0 150 -150 0 -150 0 0 150 0 150 -150 0 -150 0 0 150 0 150 450 0 450
0 0 -150 0 -150 150 0 150 0 0 -150 0 -150 150 0 150 0 0 -300 0 -300 750 0
750 0 0 150 0 150 150 0 150 0 0 750 0 750 -150 0 -150 0 0 -150 0 -150 -150
0 -150 0 0 -150 0 -150 -150 0 -150 0 0 -150 0 -150 -150 0 -150 0 0 450 0
450 150 0 150 0 0 150 0 150 150 0 150 0 0 150 0 150 300 0 300 0 0 750 0 750
-150 0 -150 0 0 150 0 150 -750 0 -750 0 0 -150 0 -150 150 0 150 0 0 -150 0
-150 150 0 150 0 0 -150 0 -150 150 0 150 0 0 -150 0 -150 -450 0 -450 0 0
150 0 150 -150 0 -150 0 0 150 0 150 -150 0 -150 0 0 300 0 300 -750 0 -750 0
0 -150z m300 -300 l0 -150 150 0 150 0 0 -150 0 -150 -150 0 -150 0 0 150 0
150 -150 0 -150 0 0 150 0 150 150 0 150 0 0 -150z m3300 0 l0 -150 -150 0
-150 0 0 -150 0 -150 -150 0 -150 0 0 150 0 150 150 0 150 0 0 150 0 150 150
0 150 0 0 -150z m-2400 -300 l0 -150 -150 0 -150 0 0 150 0 150 150 0 150 0 0
-150z m600 -300 l0 -150 150 0 150 0 0 -150 0 -150 -150 0 -150 0 0 -150 0
-150 300 0 300 0 0 -150 0 -150 150 0 150 0 0 150 0 150 150 0 150 0 0 -150 0
-150 -150 0 -150 0 0 -150 0 -150 -150 0 -150 0 0 150 0 150 -150 0 -150 0 0
-300 0 -300 -150 0 -150 0 0 -150 0 -150 150 0 150 0 0 -150 0 -150 -150 0
-150 0 0 150 0 150 -150 0 -150 0 0 150 0 150 150 0 150 0 0 150 0 150 -300 0
-300 0 0 150 0 150 -150 0 -150 0 0 -150 0 -150 -150 0 -150 0 0 150 0 150
150 0 150 0 0 150 0 150 150 0 150 0 0 -150 0 -150 150 0 150 0 0 300 0 300
150 0 150 0 0 150 0 150 -150 0 -150 0 0 150 0 150 150 0 150 0 0 -150z m1500
-300 l0 -150 -150 0 -150 0 0 150 0 150 150 0 150 0 0 -150z m-2700 -1500 l0
-150 -150 0 -150 0 0 150 0 150 150 0 150 0 0 -150z m0 -600 l0 -150 -150 0
-150 0 0 -150 0 -150 -150 0 -150 0 0 150 0 150 150 0 150 0 0 150 0 150 150
0 150 0 0 -150z m2100 0 l0 -150 -150 0 -150 0 0 150 0 150 150 0 150 0 0
-150z m600 0 l0 -150 150 0 150 0 0 -150 0 -150 -150 0 -150 0 0 150 0 150
-150 0 -150 0 0 150 0 150 150 0 150 0 0 -150z"/>
</g>
</svg>
